<svg width="44" height="76" viewBox="0 0 44 76" fill="none" xmlns="http://www.w3.org/2000/svg">
<path d="M16.0003 58.5001C10.5634 58.5001 5.34913 56.3403 1.50464 52.4958C-2.33986 48.6513 -4.49968 43.437 -4.49968 38.0001C-4.49968 34.5834 -3.64551 31.2692 -2.10801 28.4334L-7.09634 23.4451C-9.76134 27.6476 -11.333 32.6359 -11.333 38.0001C-11.333 45.2493 -8.45325 52.2017 -3.32726 57.3277C1.79873 62.4537 8.75107 65.3334 16.0003 65.3334V75.5834L29.667 61.9167L16.0003 48.2501V58.5001ZM16.0003 10.6667V0.416748L2.33366 14.0834L16.0003 27.7501V17.5001C21.4373 17.5001 26.6515 19.6599 30.496 23.5044C34.3405 27.3489 36.5003 32.5631 36.5003 38.0001C36.5003 41.4167 35.6462 44.7309 34.1087 47.5667L39.097 52.5551C41.762 48.3526 43.3337 43.3642 43.3337 38.0001C43.3337 30.7508 40.4539 23.7985 35.3279 18.6725C30.2019 13.5465 23.2496 10.6667 16.0003 10.6667Z" fill="#4F4F4F"/>
</svg>
