<svg width="82" height="82" viewBox="0 0 82 82" fill="none" xmlns="http://www.w3.org/2000/svg">
<path d="M74.5512 52.6851L66.0096 67.4792C64.3354 70.4176 61.2262 71.9551 58.0829 71.7501H51.2496V78.5834L42.7079 63.2084L51.2496 47.8334V54.6667H60.8846L53.2996 41.5126L68.0937 32.9709L74.2437 43.6309C76.0204 46.2617 76.2596 49.7809 74.5512 52.6851ZM31.4671 10.4551H48.5504C51.8987 10.4551 54.8029 12.4026 56.2037 15.2042L59.6204 21.1492L65.5312 17.7326L56.5112 32.8001L38.9154 33.1076L44.8262 29.6909L40.0087 21.3201L32.4579 34.4742L17.6296 25.9326L23.7796 15.2726C25.1804 12.4367 28.0846 10.4551 31.4671 10.4551ZM17.2537 67.5134L8.71206 52.7192C7.03789 49.8151 7.27706 46.3301 9.01956 43.6992L12.4362 37.7884L6.52539 34.3717L24.0871 34.6451L33.1412 49.7467L27.2304 46.3301L22.4129 54.6667H37.5829V71.7501H25.2829C22.1054 71.9892 18.9621 70.4176 17.2537 67.5134Z" fill="#4F4F4F"/>
</svg>
