<svg width="51" height="69" viewBox="0 0 51 69" fill="none" xmlns="http://www.w3.org/2000/svg">
<path d="M49.5512 42.6851L41.0096 57.4792C39.3354 60.4176 36.2262 61.9551 33.0829 61.7501H26.2496V68.5834L17.7079 53.2084L26.2496 37.8334V44.6667H35.8846L28.2996 31.5126L43.0937 22.9709L49.2437 33.6309C51.0204 36.2617 51.2596 39.7809 49.5512 42.6851ZM6.46706 0.455078H23.5504C26.8987 0.455078 29.8029 2.40258 31.2037 5.20424L34.6204 11.1492L40.5312 7.73258L31.5112 22.8001L13.9154 23.1076L19.8262 19.6909L15.0087 11.3201L7.45789 24.4742L-7.37044 15.9326L-1.22044 5.27258C0.180391 2.43674 3.08456 0.455078 6.46706 0.455078ZM-7.74627 57.5134L-16.2879 42.7192C-17.9621 39.8151 -17.7229 36.3301 -15.9804 33.6992L-12.5638 27.7884L-18.4746 24.3717L-0.912941 24.6451L8.14122 39.7467L2.23039 36.3301L-2.58711 44.6667H12.5829V61.7501H0.282892C-2.89461 61.9892 -6.03794 60.4176 -7.74627 57.5134Z" fill="#4F4F4F"/>
</svg>
