<svg width="48" height="48" viewBox="0 0 48 48" fill="none" xmlns="http://www.w3.org/2000/svg">
<path d="M44.2951 29.0341L39.1099 38.1545C38.0936 39.9659 36.2062 40.9137 34.298 40.7874H30.1498V45L24.9646 35.5216L30.1498 26.0431V30.2558H35.9988L31.3943 22.1464L40.3751 16.8806L44.1085 23.4524C45.187 25.0742 45.3322 27.2437 44.2951 29.0341ZM18.1409 3H28.5113C30.5439 3 32.3069 4.2006 33.1573 5.92778L35.2314 9.59278L38.8195 7.48646L33.3439 16.7753L22.6624 16.9649L26.2505 14.8586L23.3261 9.69809L18.7423 17.8074L9.74079 12.5416L13.4742 5.96991C14.3245 4.22166 16.0875 3 18.1409 3ZM9.51264 38.1755L4.32742 29.0552C3.31111 27.2648 3.4563 25.1163 4.51409 23.4945L6.58818 19.8506L3 17.7442L13.6608 17.9127L19.1572 27.2227L15.569 25.1163L12.6445 30.2558H21.8535V40.7874H14.3868C12.4579 40.9348 10.5497 39.9659 9.51264 38.1755Z" fill="#4F4F4F"/>
</svg>
