<svg width="48" height="48" viewBox="0 0 48 48" fill="none" xmlns="http://www.w3.org/2000/svg">
<path d="M25 34C21.6797 34 18.7709 33.3016 16.4231 31C14.0753 28.6984 12.966 26.7549 12.966 23.5C12.966 21.4545 13.5995 19.0614 14.5385 17.3636L9.15385 14.8219C7.52635 17.3378 7 20.2886 7 23.5C7 27.8399 9.2542 32.2169 12.3846 35.2857C15.515 38.3545 20.5729 40 25 40V46L33.1154 37.8182L25 29.5V34ZM25 6.5V1L16.4231 9.18182L25 17.3636V12C28.3203 12 30.7676 12.5203 33.1154 14.8219C35.4632 17.1235 36.5725 20.2451 36.5725 23.5C36.5725 25.5455 36.4774 26.6237 35.5385 28.3214L39.8462 32.0714C41.4737 29.5555 42 26.7114 42 23.5C42 19.1601 40.8227 14.2473 37.6923 11.1786C34.5619 8.10979 29.4271 6.5 25 6.5Z" fill="#4F4F4F"/>
</svg>
